<svg xmlns="http://www.w3.org/2000/svg" viewBox="0 0 24 24" id="bookshelf"><path fill="#fd6c77" d="m12.255,3.658c-.23-.409-.608-.704-1.062-.83l-1.92-.54c-.922-.263-1.893.28-2.155,1.209l-3.53,12.52c-.127.448-.07.919.157,1.325.23.409.608.704,1.062.83l1.96.55c.255.073.514.002.697-.158.081.072.18.127.291.158.068.02.137.028.204.028.328,0,.629-.216.722-.546l3.73-13.221c.127-.448.07-.919-.157-1.325Z"></path><path fill="#ff9f69" d="m15,3.25h-2c-.965,0-1.75.785-1.75,1.75v13.75h5.5V5c0-.965-.785-1.75-1.75-1.75Z"></path><path fill="#ffd15b" d="m19,2.25h-2c-.965,0-1.75.785-1.75,1.75v14.75h5.5V4c0-.965-.785-1.75-1.75-1.75Z"></path><path fill="#69687c" d="m19.5,17.25H4.5c-1.24,0-2.25,1.01-2.25,2.25s1.01,2.25,2.25,2.25h15c1.24,0,2.25-1.01,2.25-2.25s-1.01-2.25-2.25-2.25Z"></path><path fill="#494249" d="m20.75,17.631V4c0-.965-.785-1.75-1.75-1.75h-2c-.716,0-1.331.433-1.602,1.05-.128-.03-.261-.05-.398-.05h-2c-.316,0-.608.091-.865.238-.232-.318-.557-.553-.942-.66l-1.92-.54c-.922-.263-1.893.28-2.155,1.209l-3.53,12.52c-.127.448-.07.919.157,1.325.008.014.019.026.028.039-.883.304-1.523,1.134-1.523,2.119,0,1.24,1.01,2.25,2.25,2.25h15c1.24,0,2.25-1.01,2.25-2.25,0-.778-.398-1.465-1-1.869Zm-4-12.631v-1c0-.138.112-.25.25-.25h2c.138,0,.25.112.25.25v13.25h-2.5V5Zm-4,0c0-.138.112-.25.25-.25h2c.138,0,.25.112.25.25v12.25h-2.5V5Zm-1.5,4.102v8.148h-2.299l2.299-8.148Zm-6.219,7.321l3.53-12.518c.031-.11.131-.183.239-.183.022,0,.044.003.066.009l1.922.541c.088.024.135.079.158.121.021.039.044.104.021.183l-3.576,12.674h-.321l-1.86-.522c-.088-.024-.135-.079-.158-.121-.021-.039-.044-.104-.021-.184Zm14.469,3.827H4.5c-.413,0-.75-.337-.75-.75s.337-.75.75-.75h15c.413,0,.75.337.75.75s-.337.75-.75.75Z"></path></svg>